<mxfile host="app.diagrams.net" modified="2020-11-19T02:57:50.127Z" agent="5.0 (Windows NT 10.0; WOW64) AppleWebKit/537.36 (KHTML, like Gecko) Chrome/78.0.3904.108 Safari/537.36" etag="ox6R0rCvAalrHCGR0AHv" version="13.10.0" type="github">
  <diagram id="SNDxYb_rHsv5n3qd7yI8" name="Page-1">
    <mxGraphModel dx="2062" dy="1101" grid="1" gridSize="10" guides="1" tooltips="1" connect="1" arrows="1" fold="1" page="1" pageScale="1" pageWidth="827" pageHeight="1169" math="0" shadow="0">
      <root>
        <mxCell id="0" />
        <mxCell id="1" parent="0" />
        <mxCell id="oRgY2UtIKx9oSUxHWmok-10" value="" style="edgeStyle=orthogonalEdgeStyle;rounded=0;orthogonalLoop=1;jettySize=auto;html=1;" parent="1" source="oRgY2UtIKx9oSUxHWmok-3" target="oRgY2UtIKx9oSUxHWmok-9" edge="1">
          <mxGeometry relative="1" as="geometry" />
        </mxCell>
        <mxCell id="oRgY2UtIKx9oSUxHWmok-3" value="开始" style="ellipse;whiteSpace=wrap;html=1;aspect=fixed;" parent="1" vertex="1">
          <mxGeometry x="374" y="180" width="80" height="80" as="geometry" />
        </mxCell>
        <mxCell id="oRgY2UtIKx9oSUxHWmok-8" value="" style="edgeStyle=orthogonalEdgeStyle;rounded=0;orthogonalLoop=1;jettySize=auto;html=1;" parent="1" source="oRgY2UtIKx9oSUxHWmok-4" target="oRgY2UtIKx9oSUxHWmok-7" edge="1">
          <mxGeometry relative="1" as="geometry" />
        </mxCell>
        <mxCell id="oRgY2UtIKx9oSUxHWmok-4" value="读取mysql 黑名单和key table 表数据" style="rounded=0;whiteSpace=wrap;html=1;" parent="1" vertex="1">
          <mxGeometry x="354" y="450" width="120" height="60" as="geometry" />
        </mxCell>
        <mxCell id="oRgY2UtIKx9oSUxHWmok-13" value="" style="edgeStyle=orthogonalEdgeStyle;rounded=0;orthogonalLoop=1;jettySize=auto;html=1;" parent="1" source="oRgY2UtIKx9oSUxHWmok-7" target="oRgY2UtIKx9oSUxHWmok-12" edge="1">
          <mxGeometry relative="1" as="geometry" />
        </mxCell>
        <mxCell id="oRgY2UtIKx9oSUxHWmok-7" value="同步更新到redis" style="rounded=0;whiteSpace=wrap;html=1;" parent="1" vertex="1">
          <mxGeometry x="354" y="600" width="120" height="60" as="geometry" />
        </mxCell>
        <mxCell id="oRgY2UtIKx9oSUxHWmok-11" value="" style="edgeStyle=orthogonalEdgeStyle;rounded=0;orthogonalLoop=1;jettySize=auto;html=1;" parent="1" source="oRgY2UtIKx9oSUxHWmok-9" target="oRgY2UtIKx9oSUxHWmok-4" edge="1">
          <mxGeometry relative="1" as="geometry" />
        </mxCell>
        <mxCell id="oRgY2UtIKx9oSUxHWmok-9" value="lambda 定时15 分钟触发事件" style="rounded=0;whiteSpace=wrap;html=1;" parent="1" vertex="1">
          <mxGeometry x="354" y="310" width="120" height="60" as="geometry" />
        </mxCell>
        <mxCell id="oRgY2UtIKx9oSUxHWmok-12" value="结束" style="rounded=1;whiteSpace=wrap;html=1;" parent="1" vertex="1">
          <mxGeometry x="354" y="760" width="120" height="60" as="geometry" />
        </mxCell>
      </root>
    </mxGraphModel>
  </diagram>
</mxfile>
